<mxfile host="65bd71144e">
    <diagram id="C5RBs43oDa-KdzZeNtuy" name="Page-1">
        <mxGraphModel dx="862" dy="610" grid="1" gridSize="10" guides="1" tooltips="1" connect="1" arrows="1" fold="1" page="1" pageScale="1" pageWidth="827" pageHeight="1169" math="0" shadow="0">
            <root>
                <mxCell id="WIyWlLk6GJQsqaUBKTNV-0"/>
                <mxCell id="WIyWlLk6GJQsqaUBKTNV-1" parent="WIyWlLk6GJQsqaUBKTNV-0"/>
                <mxCell id="0" value="Initialisation" style="rounded=1;whiteSpace=wrap;html=1;" parent="WIyWlLk6GJQsqaUBKTNV-1" vertex="1">
                    <mxGeometry x="70" y="370" width="100" height="40" as="geometry"/>
                </mxCell>
                <mxCell id="42" style="edgeStyle=none;html=1;exitX=0.615;exitY=1.04;exitDx=0;exitDy=0;entryX=0;entryY=0.5;entryDx=0;entryDy=0;exitPerimeter=0;" parent="WIyWlLk6GJQsqaUBKTNV-1" source="1" target="41" edge="1">
                    <mxGeometry relative="1" as="geometry">
                        <Array as="points">
                            <mxPoint x="70" y="140"/>
                        </Array>
                    </mxGeometry>
                </mxCell>
                <mxCell id="1" value="&lt;br&gt;&lt;br&gt;Saisie utilisateur" style="shape=actor;whiteSpace=wrap;html=1;fontFamily=Helvetica;fontSize=12;fontColor=default;align=center;strokeColor=default;fillColor=default;" parent="WIyWlLk6GJQsqaUBKTNV-1" vertex="1">
                    <mxGeometry x="10" y="40" width="100" height="80" as="geometry"/>
                </mxCell>
                <mxCell id="2" value="plus de 3 caractères&lt;br&gt;?" style="rhombus;whiteSpace=wrap;html=1;" parent="WIyWlLk6GJQsqaUBKTNV-1" vertex="1">
                    <mxGeometry x="140" y="210" width="80" height="80" as="geometry"/>
                </mxCell>
                <mxCell id="14" value="Tag validé&lt;br&gt;par entrée&lt;br&gt;ou clic ?" style="rhombus;whiteSpace=wrap;html=1;" parent="WIyWlLk6GJQsqaUBKTNV-1" vertex="1">
                    <mxGeometry x="270" y="210" width="80" height="80" as="geometry"/>
                </mxCell>
                <mxCell id="18" value="FILTRE&lt;br&gt;mots du titre,&lt;br&gt;ingrédients,&lt;br&gt;description&lt;br&gt;/saisies utilisateur" style="rounded=1;whiteSpace=wrap;html=1;" parent="WIyWlLk6GJQsqaUBKTNV-1" vertex="1">
                    <mxGeometry x="390" y="290" width="120" height="100" as="geometry"/>
                </mxCell>
                <mxCell id="19" value="modification de la liste des tags" style="rounded=1;whiteSpace=wrap;html=1;" parent="WIyWlLk6GJQsqaUBKTNV-1" vertex="1">
                    <mxGeometry x="390" y="150" width="120" height="60" as="geometry"/>
                </mxCell>
                <mxCell id="20" value="" style="endArrow=classic;html=1;exitX=0.5;exitY=0;exitDx=0;exitDy=0;entryX=0;entryY=0.5;entryDx=0;entryDy=0;" parent="WIyWlLk6GJQsqaUBKTNV-1" source="14" target="19" edge="1">
                    <mxGeometry relative="1" as="geometry">
                        <mxPoint x="320" y="440" as="sourcePoint"/>
                        <mxPoint x="420" y="440" as="targetPoint"/>
                        <Array as="points">
                            <mxPoint x="310" y="180"/>
                        </Array>
                    </mxGeometry>
                </mxCell>
                <mxCell id="21" value="oui" style="edgeLabel;resizable=0;html=1;align=center;verticalAlign=middle;" parent="20" connectable="0" vertex="1">
                    <mxGeometry relative="1" as="geometry"/>
                </mxCell>
                <mxCell id="22" value="" style="endArrow=classic;html=1;exitX=0.5;exitY=1;exitDx=0;exitDy=0;entryX=0;entryY=0.5;entryDx=0;entryDy=0;" parent="WIyWlLk6GJQsqaUBKTNV-1" source="14" target="18" edge="1">
                    <mxGeometry relative="1" as="geometry">
                        <mxPoint x="280" y="420" as="sourcePoint"/>
                        <mxPoint x="380" y="420" as="targetPoint"/>
                        <Array as="points">
                            <mxPoint x="310" y="340"/>
                        </Array>
                    </mxGeometry>
                </mxCell>
                <mxCell id="23" value="non" style="edgeLabel;resizable=0;html=1;align=center;verticalAlign=middle;" parent="22" connectable="0" vertex="1">
                    <mxGeometry relative="1" as="geometry"/>
                </mxCell>
                <mxCell id="24" value="" style="endArrow=classic;html=1;exitX=0.5;exitY=1;exitDx=0;exitDy=0;entryX=0.5;entryY=0;entryDx=0;entryDy=0;" parent="WIyWlLk6GJQsqaUBKTNV-1" source="19" target="18" edge="1">
                    <mxGeometry width="50" height="50" relative="1" as="geometry">
                        <mxPoint x="460" y="350" as="sourcePoint"/>
                        <mxPoint x="510" y="300" as="targetPoint"/>
                    </mxGeometry>
                </mxCell>
                <mxCell id="25" value="Nb&lt;br&gt;recettes&lt;br&gt;&amp;gt;0" style="rhombus;whiteSpace=wrap;html=1;" parent="WIyWlLk6GJQsqaUBKTNV-1" vertex="1">
                    <mxGeometry x="560" y="300" width="80" height="80" as="geometry"/>
                </mxCell>
                <mxCell id="26" value="" style="endArrow=classic;html=1;entryX=0;entryY=0.5;entryDx=0;entryDy=0;exitX=1;exitY=0.5;exitDx=0;exitDy=0;" parent="WIyWlLk6GJQsqaUBKTNV-1" source="18" target="25" edge="1">
                    <mxGeometry width="50" height="50" relative="1" as="geometry">
                        <mxPoint x="460" y="330" as="sourcePoint"/>
                        <mxPoint x="510" y="280" as="targetPoint"/>
                    </mxGeometry>
                </mxCell>
                <mxCell id="60" style="edgeStyle=none;html=1;exitX=0.5;exitY=1;exitDx=0;exitDy=0;entryX=1;entryY=0.5;entryDx=0;entryDy=0;" parent="WIyWlLk6GJQsqaUBKTNV-1" source="27" target="63" edge="1">
                    <mxGeometry relative="1" as="geometry">
                        <mxPoint x="650" y="530" as="targetPoint"/>
                        <Array as="points">
                            <mxPoint x="720" y="530"/>
                        </Array>
                    </mxGeometry>
                </mxCell>
                <mxCell id="27" value="AFFICHAGE&lt;br&gt;des fiches recettes&lt;br&gt;actualisé" style="rounded=1;whiteSpace=wrap;html=1;" parent="WIyWlLk6GJQsqaUBKTNV-1" vertex="1">
                    <mxGeometry x="660" y="410" width="120" height="70" as="geometry"/>
                </mxCell>
                <mxCell id="28" value="" style="endArrow=classic;html=1;exitX=0.5;exitY=1;exitDx=0;exitDy=0;entryX=0;entryY=0.5;entryDx=0;entryDy=0;" parent="WIyWlLk6GJQsqaUBKTNV-1" source="25" target="27" edge="1">
                    <mxGeometry relative="1" as="geometry">
                        <mxPoint x="680" y="320" as="sourcePoint"/>
                        <mxPoint x="780" y="320" as="targetPoint"/>
                        <Array as="points">
                            <mxPoint x="600" y="445"/>
                        </Array>
                    </mxGeometry>
                </mxCell>
                <mxCell id="29" value="oui" style="edgeLabel;resizable=0;html=1;align=center;verticalAlign=middle;" parent="28" connectable="0" vertex="1">
                    <mxGeometry relative="1" as="geometry">
                        <mxPoint x="10" y="5" as="offset"/>
                    </mxGeometry>
                </mxCell>
                <mxCell id="32" value="Récupération de la&lt;br&gt;liste des recettes" style="rounded=1;whiteSpace=wrap;html=1;" parent="WIyWlLk6GJQsqaUBKTNV-1" vertex="1">
                    <mxGeometry x="140" y="430" width="120" height="60" as="geometry"/>
                </mxCell>
                <mxCell id="36" style="edgeStyle=none;html=1;exitX=1;exitY=0.5;exitDx=0;exitDy=0;entryX=0.5;entryY=1;entryDx=0;entryDy=0;" parent="WIyWlLk6GJQsqaUBKTNV-1" source="32" target="18" edge="1">
                    <mxGeometry relative="1" as="geometry">
                        <Array as="points">
                            <mxPoint x="450" y="460"/>
                        </Array>
                        <mxPoint x="420" y="460" as="sourcePoint"/>
                    </mxGeometry>
                </mxCell>
                <mxCell id="34" value="" style="endArrow=classic;html=1;exitX=1;exitY=0.5;exitDx=0;exitDy=0;entryX=0.75;entryY=0;entryDx=0;entryDy=0;" parent="WIyWlLk6GJQsqaUBKTNV-1" source="0" target="32" edge="1">
                    <mxGeometry width="50" height="50" relative="1" as="geometry">
                        <mxPoint x="460" y="310" as="sourcePoint"/>
                        <mxPoint x="510" y="260" as="targetPoint"/>
                        <Array as="points">
                            <mxPoint x="230" y="390"/>
                        </Array>
                    </mxGeometry>
                </mxCell>
                <mxCell id="39" value="" style="endArrow=classic;html=1;entryX=0.432;entryY=1.038;entryDx=0;entryDy=0;entryPerimeter=0;exitX=0;exitY=0.5;exitDx=0;exitDy=0;" parent="WIyWlLk6GJQsqaUBKTNV-1" source="2" target="1" edge="1">
                    <mxGeometry relative="1" as="geometry">
                        <mxPoint x="240" y="300" as="sourcePoint"/>
                        <mxPoint x="530" y="290" as="targetPoint"/>
                        <Array as="points">
                            <mxPoint x="53" y="250"/>
                        </Array>
                    </mxGeometry>
                </mxCell>
                <mxCell id="40" value="non" style="edgeLabel;resizable=0;html=1;align=center;verticalAlign=middle;" parent="39" connectable="0" vertex="1">
                    <mxGeometry relative="1" as="geometry">
                        <mxPoint x="17" y="1" as="offset"/>
                    </mxGeometry>
                </mxCell>
                <mxCell id="41" value="saisie&lt;br&gt;clavier ou&lt;br&gt;liste ?" style="rhombus;whiteSpace=wrap;html=1;" parent="WIyWlLk6GJQsqaUBKTNV-1" vertex="1">
                    <mxGeometry x="140" y="100" width="80" height="80" as="geometry"/>
                </mxCell>
                <mxCell id="43" value="" style="endArrow=classic;html=1;exitX=0.5;exitY=1;exitDx=0;exitDy=0;entryX=0.5;entryY=0;entryDx=0;entryDy=0;" parent="WIyWlLk6GJQsqaUBKTNV-1" edge="1">
                    <mxGeometry relative="1" as="geometry">
                        <mxPoint x="179.5" y="180" as="sourcePoint"/>
                        <mxPoint x="179.5" y="210" as="targetPoint"/>
                        <Array as="points"/>
                    </mxGeometry>
                </mxCell>
                <mxCell id="44" value="clavier" style="edgeLabel;resizable=0;html=1;align=center;verticalAlign=middle;" parent="43" connectable="0" vertex="1">
                    <mxGeometry relative="1" as="geometry">
                        <mxPoint x="1" y="-5" as="offset"/>
                    </mxGeometry>
                </mxCell>
                <mxCell id="45" value="" style="endArrow=classic;html=1;exitX=1;exitY=0.5;exitDx=0;exitDy=0;entryX=0.5;entryY=0;entryDx=0;entryDy=0;" parent="WIyWlLk6GJQsqaUBKTNV-1" source="41" target="19" edge="1">
                    <mxGeometry relative="1" as="geometry">
                        <mxPoint x="290" y="100" as="sourcePoint"/>
                        <mxPoint x="390" y="100" as="targetPoint"/>
                        <Array as="points">
                            <mxPoint x="450" y="140"/>
                        </Array>
                    </mxGeometry>
                </mxCell>
                <mxCell id="46" value="liste recherche avancée" style="edgeLabel;resizable=0;html=1;align=center;verticalAlign=middle;" parent="45" connectable="0" vertex="1">
                    <mxGeometry relative="1" as="geometry"/>
                </mxCell>
                <mxCell id="47" value="" style="endArrow=classic;html=1;exitX=1;exitY=0.5;exitDx=0;exitDy=0;entryX=0;entryY=0.5;entryDx=0;entryDy=0;" parent="WIyWlLk6GJQsqaUBKTNV-1" source="2" target="14" edge="1">
                    <mxGeometry relative="1" as="geometry">
                        <mxPoint x="360" y="270" as="sourcePoint"/>
                        <mxPoint x="460" y="270" as="targetPoint"/>
                    </mxGeometry>
                </mxCell>
                <mxCell id="48" value="oui" style="edgeLabel;resizable=0;html=1;align=center;verticalAlign=middle;" parent="47" connectable="0" vertex="1">
                    <mxGeometry relative="1" as="geometry"/>
                </mxCell>
                <mxCell id="51" style="edgeStyle=none;html=1;exitX=0.5;exitY=0;exitDx=0;exitDy=0;entryX=0.5;entryY=1;entryDx=0;entryDy=0;" parent="WIyWlLk6GJQsqaUBKTNV-1" source="49" target="67" edge="1">
                    <mxGeometry relative="1" as="geometry">
                        <mxPoint x="720" y="210" as="targetPoint"/>
                    </mxGeometry>
                </mxCell>
                <mxCell id="49" value="AFFICHAGE&lt;br&gt;message erreur" style="rounded=1;whiteSpace=wrap;html=1;" parent="WIyWlLk6GJQsqaUBKTNV-1" vertex="1">
                    <mxGeometry x="660" y="240" width="120" height="60" as="geometry"/>
                </mxCell>
                <mxCell id="50" value="suppression&lt;br&gt;tag ?" style="rhombus;whiteSpace=wrap;html=1;" parent="WIyWlLk6GJQsqaUBKTNV-1" vertex="1">
                    <mxGeometry x="220" y="50" width="80" height="80" as="geometry"/>
                </mxCell>
                <mxCell id="52" value="" style="endArrow=classic;html=1;exitX=1;exitY=0.5;exitDx=0;exitDy=0;entryX=0.75;entryY=0;entryDx=0;entryDy=0;" parent="WIyWlLk6GJQsqaUBKTNV-1" source="50" target="19" edge="1">
                    <mxGeometry relative="1" as="geometry">
                        <mxPoint x="360" y="260" as="sourcePoint"/>
                        <mxPoint x="460" y="260" as="targetPoint"/>
                        <Array as="points">
                            <mxPoint x="480" y="90"/>
                        </Array>
                    </mxGeometry>
                </mxCell>
                <mxCell id="53" value="oui" style="edgeLabel;resizable=0;html=1;align=center;verticalAlign=middle;" parent="52" connectable="0" vertex="1">
                    <mxGeometry relative="1" as="geometry"/>
                </mxCell>
                <mxCell id="54" value="" style="endArrow=classic;html=1;exitX=0.5;exitY=0;exitDx=0;exitDy=0;" parent="WIyWlLk6GJQsqaUBKTNV-1" source="25" edge="1">
                    <mxGeometry relative="1" as="geometry">
                        <mxPoint x="560" y="269.5" as="sourcePoint"/>
                        <mxPoint x="660" y="269.5" as="targetPoint"/>
                        <Array as="points">
                            <mxPoint x="600" y="270"/>
                        </Array>
                    </mxGeometry>
                </mxCell>
                <mxCell id="55" value="non" style="edgeLabel;resizable=0;html=1;align=center;verticalAlign=middle;" parent="54" connectable="0" vertex="1">
                    <mxGeometry relative="1" as="geometry"/>
                </mxCell>
                <mxCell id="56" value="" style="endArrow=classic;html=1;entryX=0;entryY=0.5;entryDx=0;entryDy=0;exitX=0.99;exitY=0.644;exitDx=0;exitDy=0;exitPerimeter=0;" parent="WIyWlLk6GJQsqaUBKTNV-1" source="1" target="50" edge="1">
                    <mxGeometry relative="1" as="geometry">
                        <mxPoint x="100" y="70" as="sourcePoint"/>
                        <mxPoint x="80" y="70" as="targetPoint"/>
                        <Array as="points">
                            <mxPoint x="150" y="90"/>
                        </Array>
                    </mxGeometry>
                </mxCell>
                <mxCell id="59" value="nouvelle&lt;br&gt;saisie ?" style="rhombus;whiteSpace=wrap;html=1;" parent="WIyWlLk6GJQsqaUBKTNV-1" vertex="1">
                    <mxGeometry x="450" y="490" width="80" height="80" as="geometry"/>
                </mxCell>
                <mxCell id="61" value="" style="endArrow=classic;html=1;exitX=0;exitY=0.5;exitDx=0;exitDy=0;entryX=0.25;entryY=1;entryDx=0;entryDy=0;" parent="WIyWlLk6GJQsqaUBKTNV-1" source="59" target="1" edge="1">
                    <mxGeometry relative="1" as="geometry">
                        <mxPoint x="360" y="340" as="sourcePoint"/>
                        <mxPoint x="460" y="340" as="targetPoint"/>
                        <Array as="points">
                            <mxPoint x="30" y="530"/>
                        </Array>
                    </mxGeometry>
                </mxCell>
                <mxCell id="62" value="oui" style="edgeLabel;resizable=0;html=1;align=center;verticalAlign=middle;" parent="61" connectable="0" vertex="1">
                    <mxGeometry relative="1" as="geometry"/>
                </mxCell>
                <mxCell id="64" style="edgeStyle=none;html=1;exitX=0;exitY=0.5;exitDx=0;exitDy=0;entryX=1;entryY=0.5;entryDx=0;entryDy=0;" parent="WIyWlLk6GJQsqaUBKTNV-1" source="63" target="59" edge="1">
                    <mxGeometry relative="1" as="geometry"/>
                </mxCell>
                <mxCell id="63" value="attente&lt;br&gt;utilisateur" style="ellipse;whiteSpace=wrap;html=1;aspect=fixed;" parent="WIyWlLk6GJQsqaUBKTNV-1" vertex="1">
                    <mxGeometry x="560" y="500" width="60" height="60" as="geometry"/>
                </mxCell>
                <mxCell id="65" value="" style="endArrow=classic;html=1;exitX=0.5;exitY=0;exitDx=0;exitDy=0;entryX=0.5;entryY=0;entryDx=0;entryDy=0;" parent="WIyWlLk6GJQsqaUBKTNV-1" source="59" target="63" edge="1">
                    <mxGeometry relative="1" as="geometry">
                        <mxPoint x="490" y="480" as="sourcePoint"/>
                        <mxPoint x="560" y="440" as="targetPoint"/>
                        <Array as="points">
                            <mxPoint x="590" y="490"/>
                        </Array>
                    </mxGeometry>
                </mxCell>
                <mxCell id="66" value="non" style="edgeLabel;resizable=0;html=1;align=center;verticalAlign=middle;" parent="65" connectable="0" vertex="1">
                    <mxGeometry relative="1" as="geometry"/>
                </mxCell>
                <mxCell id="74" style="edgeStyle=none;html=1;exitX=0;exitY=0.5;exitDx=0;exitDy=0;entryX=1;entryY=0.5;entryDx=0;entryDy=0;" edge="1" parent="WIyWlLk6GJQsqaUBKTNV-1" source="67" target="73">
                    <mxGeometry relative="1" as="geometry"/>
                </mxCell>
                <mxCell id="67" value="attente&lt;br&gt;utilisateur" style="ellipse;whiteSpace=wrap;html=1;aspect=fixed;" parent="WIyWlLk6GJQsqaUBKTNV-1" vertex="1">
                    <mxGeometry x="690" y="70" width="60" height="60" as="geometry"/>
                </mxCell>
                <mxCell id="69" value="Algorithme 1 : filtrage de la liste brute des fiches recettes" style="text;strokeColor=none;align=center;fillColor=none;html=1;verticalAlign=middle;whiteSpace=wrap;rounded=0;" vertex="1" parent="WIyWlLk6GJQsqaUBKTNV-1">
                    <mxGeometry x="40" y="330" width="180" height="30" as="geometry"/>
                </mxCell>
                <mxCell id="72" style="edgeStyle=none;html=1;exitX=0;exitY=0.5;exitDx=0;exitDy=0;entryX=0;entryY=0.5;entryDx=0;entryDy=0;" edge="1" parent="WIyWlLk6GJQsqaUBKTNV-1" source="50" target="50">
                    <mxGeometry relative="1" as="geometry"/>
                </mxCell>
                <mxCell id="73" value="nouvelle&lt;br&gt;saisie ?" style="rhombus;whiteSpace=wrap;html=1;" vertex="1" parent="WIyWlLk6GJQsqaUBKTNV-1">
                    <mxGeometry x="550" y="60" width="80" height="80" as="geometry"/>
                </mxCell>
                <mxCell id="75" value="" style="endArrow=classic;html=1;exitX=0.5;exitY=0;exitDx=0;exitDy=0;entryX=0.5;entryY=0;entryDx=0;entryDy=0;" edge="1" parent="WIyWlLk6GJQsqaUBKTNV-1" source="73" target="67">
                    <mxGeometry relative="1" as="geometry">
                        <mxPoint x="360" y="290" as="sourcePoint"/>
                        <mxPoint x="460" y="290" as="targetPoint"/>
                        <Array as="points">
                            <mxPoint x="720" y="60"/>
                        </Array>
                    </mxGeometry>
                </mxCell>
                <mxCell id="76" value="non" style="edgeLabel;resizable=0;html=1;align=center;verticalAlign=middle;" connectable="0" vertex="1" parent="75">
                    <mxGeometry relative="1" as="geometry"/>
                </mxCell>
                <mxCell id="77" value="" style="endArrow=classic;html=1;exitX=0;exitY=0.5;exitDx=0;exitDy=0;entryX=0.5;entryY=0;entryDx=0;entryDy=0;" edge="1" parent="WIyWlLk6GJQsqaUBKTNV-1" source="73" target="1">
                    <mxGeometry relative="1" as="geometry">
                        <mxPoint x="360" y="290" as="sourcePoint"/>
                        <mxPoint x="460" y="290" as="targetPoint"/>
                        <Array as="points">
                            <mxPoint x="550" y="40"/>
                        </Array>
                    </mxGeometry>
                </mxCell>
                <mxCell id="78" value="oui" style="edgeLabel;resizable=0;html=1;align=center;verticalAlign=middle;" connectable="0" vertex="1" parent="77">
                    <mxGeometry relative="1" as="geometry"/>
                </mxCell>
            </root>
        </mxGraphModel>
    </diagram>
</mxfile>